<svg id="Layer_1" data-name="Layer 1" xmlns="http://www.w3.org/2000/svg" viewBox="0 0 391.79 275.36"><defs><style>.cls-1{fill:#f60000;}</style></defs><title>MeccTech Maze logo</title><polygon class="cls-1" points="0 181 0 164.92 168.75 164.92 168.75 82.19 349.17 82.19 349.17 65.87 391.79 90.22 349.55 114.11 349.55 98.54 185.2 98.54 185.2 181 0 181"/><path d="M333.42,70.3H320.87V49.69h-107v-8H320.25c0-6.5.53-12.38-.14-18.12-.75-6.47-6.54-10.43-13.91-10.44q-60.7,0-121.43,0H144.11v92.37h-8V13.11H120.07c-11.75,0-23.51-.06-35.27,0-7.3.06-13.31,5.19-13.41,12.27C71.12,43.68,71.3,62,71.3,80.73h40.44c.14,2.83.25,5.21.39,8.1H71.67v44.5h74.05v8H71.5V153H58.16v-5.37q0-60,0-119.91C58.17,11,69.16,0,85.89,0H306.08c15.76,0,26.61,9.52,27.44,25.32.74,14.07.27,28.2.31,42.3A18.41,18.41,0,0,1,333.42,70.3Z"/><path d="M58.17,193.11h13.1v18.21c0,12.26-.06,24.52,0,36.78.06,8.37,5.6,14.12,13.78,14.12q89.94.07,179.88,0c.66,0,1.32-.13,2.57-.27v-75h8v75.21c11.61,0,22.65.29,33.66-.13,5.64-.21,10.12-5.18,11.09-10.79a30.07,30.07,0,0,0,.42-5q0-47.88,0-95.74c0-1.16-.15-2.33-.26-4H251.83v-8h68.8V111.85h13.25v6.05q0,64,0,128c0,15.57-7.71,25.95-21.25,28.94a27.86,27.86,0,0,1-6,.5q-110.61,0-221.2,0C69.51,275.35,58.2,264,58.17,248,58.14,229.88,58.17,211.76,58.17,193.11Z"/><path class="cls-1" d="M171.78,168V85.21H352.19V71.08l33.48,19.13-33.09,18.71V95.51H182.18V178h-168V168Z"/><path d="M222.28,224.81H112.15v-7.76H214.27v-79h8Z"/></svg>